<svg xmlns="http://www.w3.org/2000/svg" version="1.1" xmlns:xlink="http://www.w3.org/1999/xlink" xmlns:svgjs="http://svgjs.dev/svgjs" width="2000" height="454" viewBox="0 0 2000 454"><g transform="matrix(1,0,0,1,-1.2121212121212466,-0.4838580341618979)"><svg viewBox="0 0 396 90" data-background-color="#ffffff" preserveAspectRatio="xMidYMid meet" height="454" width="2000" xmlns="http://www.w3.org/2000/svg" xmlns:xlink="http://www.w3.org/1999/xlink"><g id="tight-bounds" transform="matrix(1,0,0,1,0.2400000000000091,0.0959189935563245)"><svg viewBox="0 0 395.52 89.80816201288737" height="89.80816201288737" width="395.52"><g><svg viewBox="0 0 395.52000000000004 89.80816201288738" height="89.80816201288737" width="395.52"><g><svg viewBox="0 0 395.52000000000004 89.80816201288738" height="89.80816201288738" width="395.52000000000004"><g id="textblocktransform"><svg viewBox="0 0 395.52000000000004 89.80816201288738" height="89.80816201288738" width="395.52000000000004" id="textblock"><g><svg viewBox="0 0 395.52000000000004 89.80816201288738" height="89.80816201288738" width="395.52000000000004"><g transform="matrix(1,0,0,1,0,0)"><svg width="395.52000000000004" viewBox="3.65 -36.5 162.93 37" height="89.80816201288738" data-palette-color="#30017e"><path d="M6.65-29.8L6.65-29.8Q5.3-29.8 4.48-30.63 3.65-31.45 3.65-32.8L3.65-32.8Q3.65-34.15 4.48-34.98 5.3-35.8 6.65-35.8L6.65-35.8Q8-35.8 8.83-34.98 9.65-34.15 9.65-32.8L9.65-32.8Q9.65-31.45 8.83-30.63 8-29.8 6.65-29.8ZM4.65-25L8.65-25 8.65 0 4.65 0 4.65-25ZM34.8-36.5L38.8-36.5 38.8-6.35Q38.8-4.45 39.5-3.73 40.2-3 41.75-3L41.75-3Q42.75-3 43.4-3.15 44.05-3.3 45.15-3.7L45.15-3.7 44.5-0.2Q43.7 0.15 42.75 0.33 41.8 0.5 40.8 0.5L40.8 0.5Q37.75 0.5 36.27-1.15 34.8-2.8 34.8-6.2L34.8-6.2 34.8-36.5ZM52.29-29.8L52.29-29.8Q50.94-29.8 50.12-30.63 49.29-31.45 49.29-32.8L49.29-32.8Q49.29-34.15 50.12-34.98 50.94-35.8 52.29-35.8L52.29-35.8Q53.64-35.8 54.47-34.98 55.29-34.15 55.29-32.8L55.29-32.8Q55.29-31.45 54.47-30.63 53.64-29.8 52.29-29.8ZM50.29-25L54.29-25 54.29 0 50.29 0 50.29-25ZM80.49-25L85.54-25 74.74-14.2 73.79-13.25 65.59-5.05 65.59-10.05 80.49-25ZM63.59-36.5L67.59-36.5 67.59 0 63.59 0 63.59-36.5ZM71.74-14L75.09-16.25 86.14 0 81.29 0 71.74-14ZM102.39 0.5L102.39 0.5Q98.84 0.5 96.06-1.05 93.29-2.6 91.74-5.53 90.19-8.45 90.19-12.5L90.19-12.5Q90.19-16.55 91.74-19.48 93.29-22.4 95.99-23.95 98.69-25.5 102.14-25.5L102.14-25.5Q105.64-25.5 108.11-24 110.59-22.5 111.89-19.93 113.19-17.35 113.19-14.15L113.19-14.15Q113.19-13.3 113.14-12.6 113.09-11.9 112.99-11.35L112.99-11.35 92.79-11.35 92.79-14.9 111.24-14.9 109.19-14.5Q109.19-18.1 107.21-20.05 105.24-22 102.04-22L102.04-22Q99.59-22 97.81-20.88 96.04-19.75 95.06-17.63 94.09-15.5 94.09-12.5L94.09-12.5Q94.09-9.55 95.09-7.4 96.09-5.25 97.91-4.13 99.74-3 102.29-3L102.29-3Q105.04-3 106.76-4.05 108.49-5.1 109.54-6.9L109.54-6.9 112.69-5.05Q111.74-3.35 110.26-2.1 108.79-0.85 106.81-0.18 104.84 0.5 102.39 0.5ZM139.83-29.8L139.83-29.8Q138.48-29.8 137.66-30.63 136.83-31.45 136.83-32.8L136.83-32.8Q136.83-34.15 137.66-34.98 138.48-35.8 139.83-35.8L139.83-35.8Q141.18-35.8 142.01-34.98 142.83-34.15 142.83-32.8L142.83-32.8Q142.83-31.45 142.01-30.63 141.18-29.8 139.83-29.8ZM137.83-25L141.83-25 141.83 0 137.83 0 137.83-25ZM153.03-31L157.03-32.1 157.03-6.9Q157.03-5.05 158.08-4.15 159.13-3.25 160.78-3.25L160.78-3.25Q162.23-3.25 163.28-3.75 164.33-4.25 165.18-5.1L165.18-5.1 166.58-1.75Q165.43-0.7 163.86-0.1 162.28 0.5 160.23 0.5L160.23 0.5Q158.33 0.5 156.68-0.18 155.03-0.85 154.06-2.33 153.08-3.8 153.03-6.2L153.03-6.2 153.03-31ZM148.03-25L166.13-25 166.13-21.55 148.03-21.55 148.03-25Z" opacity="1" transform="matrix(1,0,0,1,0,0)" fill="#30017e" class="wordmark-text-0" data-fill-palette-color="primary" id="text-0"></path></svg></g></svg></g></svg></g></svg></g><g></g></svg></g><defs></defs></svg><rect width="395.52" height="89.80816201288737" fill="none" stroke="none" visibility="hidden"></rect></g></svg></g></svg>