<svg xmlns="http://www.w3.org/2000/svg" version="1.1" xmlns:xlink="http://www.w3.org/1999/xlink" xmlns:svgjs="http://svgjs.dev/svgjs" width="2000" height="585" viewBox="0 0 2000 585"><g transform="matrix(1,0,0,1,-1.2106200271854277,0.5331187284031671)"><svg viewBox="0 0 396 116" data-background-color="#ffffff" preserveAspectRatio="xMidYMid meet" height="585" width="2000" xmlns="http://www.w3.org/2000/svg" xmlns:xlink="http://www.w3.org/1999/xlink"><g id="tight-bounds" transform="matrix(1,0,0,1,0.2399599999999964,-0.1055460080962689)"><svg viewBox="0 0 395.52 116.21101461277502" height="116.21101461277502" width="395.52"><rect width="395.52033723461733" height="116.21125843971129" fill="url(#53114d1e-40ec-4085-b0fb-009b2b364b69)" mask="url(#b3478ef8-83e2-4489-b4cd-b202adb26ecc)" data-fill-palette-color="tertiary"></rect><g><svg viewBox="0 0 395.52 116.21101461277502" height="116.21101461277502" width="395.52"><g><svg viewBox="0 0 395.52 116.21101461277502" height="116.21101461277502" width="395.52"><g id="textblocktransform"><svg viewBox="0 0 395.52 116.21101461277502" height="116.21101461277502" width="395.52" id="textblock"><g><svg viewBox="0 0 395.52 116.21101461277502" height="116.21101461277502" width="395.52"><path d="M394.594 24.925C392.735 12.862 387.435 9.509 387.435 9.509 371.165-2.916 350.86-0.238 332.619 1.548 300.414 1.62 268.339 4.274 236.208 5.697 168.767 5.914 100.749 2.344 33.643 11.149 27.339 13.852-6.54 11.68 1.121 26.469 3.129 32.621 10.456 39.448 10.232 45.094 11.236 46.083 12.631 43.815 13.226 45.239 15.309 49.074 18.711 47.265 21.501 49.533 17.614 55.588 20.403 60.631 23.062 65.914 18.377 67.289 12.371 66.638 9.675 71.197 9.396 74.503 7.89 73.875 6.235 73.731 5.026 73.634 2.59 73.996 2.999 75.033 4.394 78.58-1.594 80.63 2.162 84.104-0.422 87.868 3.948 91.125 3.353 95.202 3.278 96.022 3.687 96.722 4.338 96.915 7.22 97.952 3.018 99.979 3.464 102.174 33.029 117.18 65.104 106.806 95.394 113.706 103.259 108.881 97.346 115.419 100.489 114.406 102.943 113.224 104.728 118.121 107.499 115.347 107.927 114.551 107.276 112.669 108.8 113.031 109.6 113.224 110.307 113.175 110.418 112.066 110.586 110.401 109.117 111.438 108.726 110.57 112.947 106.179 111.906 116.625 115.866 116.191 115.68 114.913 114.528 113.079 116.889 113.32 119.232 111.487 119.306 109.967 121.389 114.092 121.463 114.985 121.835 115.612 122.43 116.046 128.938 111.559 135.409 117.639 142.233 115.612 146.417 113.393 150.433 116.818 154.672 115.974 156.16 115.299 157.666 114.092 159.098 116.119 176.632 116.553 195.319 114.744 211.943 116.191 256.364 113.489 303.836 117.301 350.674 113.73 361.719 112.355 373.192 110.401 383.958 108.833 383.958 108.833 392.679 104.539 392.679 85.238S394.538 68.351 394.817 52.983C395.096 37.615 396.398 36.988 394.538 24.925Z" opacity="1" fill="url(#53114d1e-40ec-4085-b0fb-009b2b364b69)" data-fill-palette-color="tertiary"></path><g transform="matrix(1,0,0,1,55.76832,26.230666666666668)"><svg width="283.98335999999995" viewBox="2.75 -38 171.93 38.6" height="63.74968127944168" data-palette-color="#ffffff"><path d="M2.75 0L2.75-2.3 6.5-2.3 6.5-32.6 2.75-32.6 2.75-34.9 14.55-34.9 14.55-32.6 10.8-32.6 10.8-2.3 14.55-2.3 14.55 0 2.75 0ZM31.64 0L31.64-2.3 35.39-2.3 35.39-32.6 31.64-32.6 31.64-34.9 43.45-34.9 43.45-32.6 39.7-32.6 39.7-2.45 52.5-2.45 52.5-8.85 56.09-8.85 56.09 0 31.64 0ZM66.84-31.75L66.84-31.75Q65.54-31.75 64.87-32.52 64.19-33.3 64.19-34.4L64.19-34.4 64.19-34.65Q64.19-35.75 64.87-36.52 65.54-37.3 66.84-37.3L66.84-37.3Q68.14-37.3 68.84-36.52 69.54-35.75 69.54-34.65L69.54-34.65 69.54-34.4Q69.54-33.3 68.84-32.52 68.14-31.75 66.84-31.75ZM61.09 0L61.09-2.3 64.79-2.3 64.79-22.55 61.09-23.2 61.09-24.9 68.89-26.4 68.89-2.3 72.59-2.3 72.59 0 61.09 0ZM76.09 0L76.09-2.3 79.79-2.3 79.79-34.15 76.09-34.8 76.09-36.55 83.89-38 83.89-11.85 84.14-11.85 88.34-16.55 94.64-23.5 91.24-23.5 91.24-25.8 101.94-25.8 101.94-23.5 98.29-23.5 91.04-15.95 100.09-2.3 102.94-2.3 102.94 0 92.29 0 92.29-2.3 95.49-2.3 88.24-13.2 83.89-8.65 83.89-2.3 87.59-2.3 87.59 0 76.09 0ZM116.74 0.6L116.74 0.6Q113.99 0.6 111.81-0.38 109.64-1.35 108.14-3.1 106.64-4.85 105.84-7.35 105.04-9.85 105.04-12.9L105.04-12.9Q105.04-15.9 105.91-18.38 106.79-20.85 108.31-22.65 109.84-24.45 111.94-25.43 114.04-26.4 116.54-26.4L116.54-26.4Q119.09-26.4 121.09-25.5 123.09-24.6 124.46-22.98 125.84-21.35 126.59-19.1 127.34-16.85 127.34-14.2L127.34-14.2 127.34-13.05 109.59-13.05 109.59-11.75Q109.59-7.5 111.71-5.05 113.84-2.6 117.39-2.6L117.39-2.6Q120.49-2.6 122.31-3.88 124.14-5.15 125.19-7.2L125.19-7.2 126.84-6.15Q126.34-4.85 125.46-3.63 124.59-2.4 123.34-1.48 122.09-0.55 120.44 0.03 118.79 0.6 116.74 0.6ZM109.59-15.95L109.59-15.35 123.04-15.35 123.04-15.85Q123.04-17.6 122.66-19.1 122.29-20.6 121.49-21.7 120.69-22.8 119.46-23.43 118.24-24.05 116.54-24.05L116.54-24.05Q114.84-24.05 113.54-23.45 112.24-22.85 111.36-21.75 110.49-20.65 110.04-19.18 109.59-17.7 109.59-15.95L109.59-15.95ZM143.93 0L143.93-2.3 147.68-2.3 147.68-32.6 143.93-32.6 143.93-34.9 155.73-34.9 155.73-32.6 151.98-32.6 151.98-2.3 155.73-2.3 155.73 0 143.93 0ZM168.58 0.3L168.58 0.3Q165.93 0.3 164.93-0.78 163.93-1.85 163.93-4.45L163.93-4.45 163.93-23.35 160.63-23.35 160.63-25.8 161.08-25.8Q162.13-25.8 162.76-25.95 163.38-26.1 163.76-26.38 164.13-26.65 164.31-27.08 164.48-27.5 164.63-28.05L164.63-28.05 165.78-32.5 168.03-32.5 168.03-25.8 174.68-25.8 174.68-23.35 168.03-23.35 168.03-2.45 174.68-2.45 174.68-0.8Q174.23-0.55 173.56-0.35 172.88-0.15 172.06 0 171.23 0.15 170.33 0.23 169.43 0.3 168.58 0.3Z" opacity="1" transform="matrix(1,0,0,1,0,0)" fill="#ffffff" class="wordmark-text-0" data-fill-palette-color="quaternary" id="text-0"></path></svg></g></svg></g></svg></g></svg></g><g></g></svg></g><defs></defs><mask id="b3478ef8-83e2-4489-b4cd-b202adb26ecc"><g id="SvgjsG1147"><svg viewBox="0 0 395.52 116.21101461277502" height="116.21101461277502" width="395.52"><g><svg viewBox="0 0 395.52 116.21101461277502" height="116.21101461277502" width="395.52"><g><svg viewBox="0 0 395.52 116.21101461277502" height="116.21101461277502" width="395.52"><g id="SvgjsG1146"><svg viewBox="0 0 395.52 116.21101461277502" height="116.21101461277502" width="395.52" id="SvgjsSvg1145"><g><svg viewBox="0 0 395.52 116.21101461277502" height="116.21101461277502" width="395.52"><path d="M394.594 24.925C392.735 12.862 387.435 9.509 387.435 9.509 371.165-2.916 350.86-0.238 332.619 1.548 300.414 1.62 268.339 4.274 236.208 5.697 168.767 5.914 100.749 2.344 33.643 11.149 27.339 13.852-6.54 11.68 1.121 26.469 3.129 32.621 10.456 39.448 10.232 45.094 11.236 46.083 12.631 43.815 13.226 45.239 15.309 49.074 18.711 47.265 21.501 49.533 17.614 55.588 20.403 60.631 23.062 65.914 18.377 67.289 12.371 66.638 9.675 71.197 9.396 74.503 7.89 73.875 6.235 73.731 5.026 73.634 2.59 73.996 2.999 75.033 4.394 78.58-1.594 80.63 2.162 84.104-0.422 87.868 3.948 91.125 3.353 95.202 3.278 96.022 3.687 96.722 4.338 96.915 7.22 97.952 3.018 99.979 3.464 102.174 33.029 117.18 65.104 106.806 95.394 113.706 103.259 108.881 97.346 115.419 100.489 114.406 102.943 113.224 104.728 118.121 107.499 115.347 107.927 114.551 107.276 112.669 108.8 113.031 109.6 113.224 110.307 113.175 110.418 112.066 110.586 110.401 109.117 111.438 108.726 110.57 112.947 106.179 111.906 116.625 115.866 116.191 115.68 114.913 114.528 113.079 116.889 113.32 119.232 111.487 119.306 109.967 121.389 114.092 121.463 114.985 121.835 115.612 122.43 116.046 128.938 111.559 135.409 117.639 142.233 115.612 146.417 113.393 150.433 116.818 154.672 115.974 156.16 115.299 157.666 114.092 159.098 116.119 176.632 116.553 195.319 114.744 211.943 116.191 256.364 113.489 303.836 117.301 350.674 113.73 361.719 112.355 373.192 110.401 383.958 108.833 383.958 108.833 392.679 104.539 392.679 85.238S394.538 68.351 394.817 52.983C395.096 37.615 396.398 36.988 394.538 24.925Z" opacity="1" fill="white"></path><g transform="matrix(1,0,0,1,55.76832,26.230666666666668)"><svg width="283.98335999999995" viewBox="2.75 -38 171.93 38.6" height="63.74968127944168" data-palette-color="#ffffff"><path d="M2.75 0L2.75-2.3 6.5-2.3 6.5-32.6 2.75-32.6 2.75-34.9 14.55-34.9 14.55-32.6 10.8-32.6 10.8-2.3 14.55-2.3 14.55 0 2.75 0ZM31.64 0L31.64-2.3 35.39-2.3 35.39-32.6 31.64-32.6 31.64-34.9 43.45-34.9 43.45-32.6 39.7-32.6 39.7-2.45 52.5-2.45 52.5-8.85 56.09-8.85 56.09 0 31.64 0ZM66.84-31.75L66.84-31.75Q65.54-31.75 64.87-32.52 64.19-33.3 64.19-34.4L64.19-34.4 64.19-34.65Q64.19-35.75 64.87-36.52 65.54-37.3 66.84-37.3L66.84-37.3Q68.14-37.3 68.84-36.52 69.54-35.75 69.54-34.65L69.54-34.65 69.54-34.4Q69.54-33.3 68.84-32.52 68.14-31.75 66.84-31.75ZM61.09 0L61.09-2.3 64.79-2.3 64.79-22.55 61.09-23.2 61.09-24.9 68.89-26.4 68.89-2.3 72.59-2.3 72.59 0 61.09 0ZM76.09 0L76.09-2.3 79.79-2.3 79.79-34.15 76.09-34.8 76.09-36.55 83.89-38 83.89-11.85 84.14-11.85 88.34-16.55 94.64-23.5 91.24-23.5 91.24-25.8 101.94-25.8 101.94-23.5 98.29-23.5 91.04-15.95 100.09-2.3 102.94-2.3 102.94 0 92.29 0 92.29-2.3 95.49-2.3 88.24-13.2 83.89-8.65 83.89-2.3 87.59-2.3 87.59 0 76.09 0ZM116.74 0.6L116.74 0.6Q113.99 0.6 111.81-0.38 109.64-1.35 108.14-3.1 106.64-4.85 105.84-7.35 105.04-9.85 105.04-12.9L105.04-12.9Q105.04-15.9 105.91-18.38 106.79-20.85 108.31-22.65 109.84-24.45 111.94-25.43 114.04-26.4 116.54-26.4L116.54-26.4Q119.09-26.4 121.09-25.5 123.09-24.6 124.46-22.98 125.84-21.35 126.59-19.1 127.34-16.85 127.34-14.2L127.34-14.2 127.34-13.05 109.59-13.05 109.59-11.75Q109.59-7.5 111.71-5.05 113.84-2.6 117.39-2.6L117.39-2.6Q120.49-2.6 122.31-3.88 124.14-5.15 125.19-7.2L125.19-7.2 126.84-6.15Q126.34-4.85 125.46-3.63 124.59-2.4 123.34-1.48 122.09-0.55 120.44 0.03 118.79 0.6 116.74 0.6ZM109.59-15.95L109.59-15.35 123.04-15.35 123.04-15.85Q123.04-17.6 122.66-19.1 122.29-20.6 121.49-21.7 120.69-22.8 119.46-23.43 118.24-24.05 116.54-24.05L116.54-24.05Q114.84-24.05 113.54-23.45 112.24-22.85 111.36-21.75 110.49-20.65 110.04-19.18 109.59-17.7 109.59-15.95L109.59-15.95ZM143.93 0L143.93-2.3 147.68-2.3 147.68-32.6 143.93-32.6 143.93-34.9 155.73-34.9 155.73-32.6 151.98-32.6 151.98-2.3 155.73-2.3 155.73 0 143.93 0ZM168.58 0.3L168.58 0.3Q165.93 0.3 164.93-0.78 163.93-1.85 163.93-4.45L163.93-4.45 163.93-23.35 160.63-23.35 160.63-25.8 161.08-25.8Q162.13-25.8 162.76-25.95 163.38-26.1 163.76-26.38 164.13-26.65 164.31-27.08 164.48-27.5 164.63-28.05L164.63-28.05 165.78-32.5 168.03-32.5 168.03-25.8 174.68-25.8 174.68-23.35 168.03-23.35 168.03-2.45 174.68-2.45 174.68-0.8Q174.23-0.55 173.56-0.35 172.88-0.15 172.06 0 171.23 0.15 170.33 0.23 169.43 0.3 168.58 0.3Z" opacity="1" transform="matrix(1,0,0,1,0,0)" fill="black" class="wordmark-text-0" id="SvgjsPath1144"></path></svg></g></svg></g></svg></g></svg></g><g></g></svg></g><defs><mask></mask></defs></svg><rect width="395.52" height="116.21101461277502" fill="black" stroke="none" visibility="hidden"></rect></g></mask><linearGradient x1="0" x2="1" y1="0.548" y2="0.55" id="53114d1e-40ec-4085-b0fb-009b2b364b69"><stop stop-color="#ff6cab" offset="0"></stop><stop stop-color="#7366ff" offset="1"></stop></linearGradient></svg><rect width="395.52" height="116.21101461277502" fill="none" stroke="none" visibility="hidden"></rect></g></svg></g></svg>